<svg width="18" height="20" viewBox="0 0 18 20" fill="none" xmlns="http://www.w3.org/2000/svg">
<path d="M10.8 10.9H12.15V13.438L14.346 14.707L13.671 15.877L10.8 14.221V10.9ZM14.4 6.39997H1.8V16.3H6.003C5.616 15.481 5.4 14.563 5.4 13.6C5.4 11.9291 6.06375 10.3267 7.24523 9.1452C8.42671 7.96372 10.0291 7.29997 11.7 7.29997C12.663 7.29997 13.581 7.51597 14.4 7.90297V6.39997ZM1.8 18.1C0.801 18.1 0 17.29 0 16.3V3.69998C0 2.70098 0.801 1.89998 1.8 1.89998H2.7V0.0999756H4.5V1.89998H11.7V0.0999756H13.5V1.89998H14.4C14.8774 1.89998 15.3352 2.08962 15.6728 2.42718C16.0104 2.76475 16.2 3.22259 16.2 3.69998V9.18997C17.316 10.324 18 11.881 18 13.6C18 15.2708 17.3363 16.8733 16.1548 18.0547C14.9733 19.2362 13.3709 19.9 11.7 19.9C9.981 19.9 8.424 19.216 7.29 18.1H1.8ZM11.7 9.23497C10.5423 9.23497 9.43207 9.69486 8.61348 10.5135C7.79488 11.332 7.335 12.4423 7.335 13.6C7.335 16.012 9.288 17.965 11.7 17.965C12.2732 17.965 12.8408 17.8521 13.3704 17.6327C13.9 17.4133 14.3812 17.0918 14.7865 16.6865C15.1918 16.2812 15.5134 15.8 15.7327 15.2704C15.9521 14.7408 16.065 14.1732 16.065 13.6C16.065 11.188 14.112 9.23497 11.7 9.23497Z" fill="#78909C"/>
</svg>
